<?xml version="1.0" encoding="iso-8859-1"?>
<!-- Generator: Adobe Illustrator 18.0.0, SVG Export Plug-In . SVG Version: 6.00 Build 0)  -->
<!DOCTYPE svg PUBLIC "-//W3C//DTD SVG 1.1//EN" "http://www.w3.org/Graphics/SVG/1.1/DTD/svg11.dtd">
<svg xmlns="http://www.w3.org/2000/svg" xmlns:xlink="http://www.w3.org/1999/xlink" version="1.1" id="Capa_1" x="0px" y="0px" viewBox="0 0 317.855 317.855" style="enable-background:new 0 0 317.855 317.855;" xml:space="preserve" width="512px" height="512px">
<g>
	<path d="M158.929,317.855c-1.029,0-2.059-0.159-3.051-0.477c-33.344-10.681-61.732-31.168-84.377-60.891   c-17.828-23.401-32.103-52.526-42.426-86.566C11.661,112.506,11.461,61.358,11.461,59.209c0-5.15,3.912-9.459,9.039-9.954   c0.772-0.075,78.438-8.048,132.553-47.347c3.504-2.546,8.249-2.543,11.753,0.001C218.906,41.207,296.582,49.18,297.36,49.256   c5.123,0.5,9.034,4.807,9.034,9.953c0,2.149-0.2,53.297-17.613,110.713c-10.324,34.04-24.598,63.165-42.426,86.566   c-22.644,29.723-51.032,50.21-84.376,60.891C160.987,317.696,159.958,317.855,158.929,317.855z M31.748,67.982   c0.831,16.784,4.062,55.438,16.604,96.591c21.405,70.227,58.601,114.87,110.576,132.746   c52.096-17.916,89.335-62.711,110.713-133.202c12.457-41.074,15.653-79.434,16.472-96.134   c-22.404-3.269-80.438-14.332-127.186-45.785C112.175,53.648,54.153,64.713,31.748,67.982z" fill="#ba112d"/>
	<g>
		<path d="M186.728,211.252c-21.691,0-32.989-2.637-43.915-5.187c-9.479-2.212-18.433-4.302-34.917-4.302c-5.522,0-10-4.478-10-10    v-51.84c0-5.522,4.478-10,10-10c12.334,0,25.004-0.992,32.501-12.849c2.209-3.491,4.416-6.45,6.362-9.061    c4.874-6.536,8.094-10.854,9.232-19.919c1.131-9.126,8.929-16.02,18.135-16.02c8.559,0,15.405,5.833,18.314,15.604    c3.751,12.663,2.17,23.416-0.842,31.548c3.177,0.044,6.102,0.075,8.049,0.075c6.7,0,12.439,2.934,16.161,8.262    c2.678,3.833,4.152,8.809,4.152,14.009c0,3.621-0.691,6.904-1.929,9.662c1.047,3.357,1.335,6.967,1.001,10.184    c-0.388,3.733-1.604,7.063-3.493,9.771c0.513,4.557-0.405,9.268-2.058,12.898c-0.526,1.159-1.135,2.23-1.813,3.207    c0.503,3.575,0.038,7.327-1.471,10.756C208.452,202.021,202.669,211.252,186.728,211.252z M117.896,182.019    c12.827,0.688,21.258,2.655,29.463,4.57c10.275,2.398,19.98,4.663,39.369,4.663c3.157,0,4.593-0.751,5.024-1.107    c-2.232-2.881-2.733-6.776-1.248-10.152c1.018-2.313,2.845-4.103,5.063-5.098c0.086-0.407,0.137-0.841,0.132-1.18    c-1.62-2.376-2.15-5.355-1.41-8.174c0.702-2.678,2.476-4.92,4.863-6.229c0.05-0.582-0.006-1.333-0.146-1.883    c-2.796-2.507-3.992-6.43-2.949-10.146c0.643-2.291,2.053-4.206,3.905-5.498c0.015-0.896-0.13-1.904-0.387-2.483    c-6.964-0.003-24.8-0.361-25.558-0.377c-4.068-0.082-7.757-2.55-9.212-6.35c-1.45-3.786-0.545-8,2.401-10.779    c0.753-0.782,8.966-9.683,7.131-23.447c-2.558,9.566-7.112,15.675-11.546,21.62c-1.816,2.437-3.695,4.955-5.493,7.797    c-10.68,16.89-27.107,20.905-39.403,21.859V182.019z" fill="#ba112d"/>
	</g>
</g>
<g>
</g>
<g>
</g>
<g>
</g>
<g>
</g>
<g>
</g>
<g>
</g>
<g>
</g>
<g>
</g>
<g>
</g>
<g>
</g>
<g>
</g>
<g>
</g>
<g>
</g>
<g>
</g>
<g>
</g>
</svg>
